PathFileType	4	(x/y/z)	S09_PSF_T11
DataRate	CameraRate	NumFrames	NumMarkers	Units	OrigDataRate	OrigDataStartFrame	OrigNumFrames
240	240	9	51	mm	240	401	458
Frame#	Time	Sternum			R.Acromium			L.Acromium			Top.Head			R.ASIS			L.ASIS			R.PSIS			L.PSIS			R.Great.Tro			L.Great.Tro			R.Iliac.Crest			L.Iliac.Crest			V.Sacral			R.Thigh.Upper.Post			R.Thigh.Lower.Ant			R.Thigh.Lower.Post			R.Thigh.Upper.Ant			R.Knee.Lat			R.Knee.Med			R.Shank.Upper.Post			R.Shank.Lower.Ant			R.Shank.Lower.Post			R.Shank.Upper.Ant			R.Ankle.Lat			R.Ankle.Med			R.Heel.Upper			R.Heel.Med			R.Heel.Lat			R.Toe.Lat			R.Toe.Med			R.Toe.Tip			L.Thigh.Upper.Post			L.Thigh.Lower.Ant			L.Thigh.Lower.Post			L.Thigh.Upper.Ant			L.Knee.Lat			L.Knee.Med			L.Shank.Upper.Post			L.Shank.Lower.Ant			L.Shank.Lower.Post			L.Shank.Upper.Ant			L.Ankle.Lat			L.Ankle.Med			L.Heel.Upper			L.Heel.Med			L.Heel.Lat			L.Toe.Lat			L.Toe.Med			L.Toe.Tip			Cervical.Spine			Back			
		X1	Y1	Z1	X2	Y2	Z2	X3	Y3	Z3	X4	Y4	Z4	X5	Y5	Z5	X6	Y6	Z6	X7	Y7	Z7	X8	Y8	Z8	X9	Y9	Z9	X10	Y10	Z10	X11	Y11	Z11	X12	Y12	Z12	X13	Y13	Z13	X14	Y14	Z14	X15	Y15	Z15	X16	Y16	Z16	X17	Y17	Z17	X18	Y18	Z18	X19	Y19	Z19	X20	Y20	Z20	X21	Y21	Z21	X22	Y22	Z22	X23	Y23	Z23	X24	Y24	Z24	X25	Y25	Z25	X26	Y26	Z26	X27	Y27	Z27	X28	Y28	Z28	X29	Y29	Z29	X30	Y30	Z30	X31	Y31	Z31	X32	Y32	Z32	X33	Y33	Z33	X34	Y34	Z34	X35	Y35	Z35	X36	Y36	Z36	X37	Y37	Z37	X38	Y38	Z38	X39	Y39	Z39	X40	Y40	Z40	X41	Y41	Z41	X42	Y42	Z42	X43	Y43	Z43	X44	Y44	Z44	X45	Y45	Z45	X46	Y46	Z46	X47	Y47	Z47	X48	Y48	Z48	X49	Y49	Z49	X50	Y50	Z50	X51	Y51	Z51	

401	1.6667	553.82	1172.2	307.93	400.28	1406.2	465.08	414.72	1415.4	149.94	423.95	1719.5	311.44	518.06	998.79	405.17	490.48	1003.9	160.83	288.2	1016.2	351.15	287.52	1028.6	262.09	447.87	908.53	485.09	398.85	918.66	96.905	426.74	1072.9	460.01	385	1100.8	138.64	268.36	988.57	301.47	512.41	665.83	467.97	612.97	593.04	431.16	536.14	576.92	442.84	582.98	675.94	455.8	613.9	521.38	428.63	612.57	505.78	298.61	621.79	336.93	435.91	711	314.62	436.4	656.49	268.14	428.11	672.11	377.75	443.32	779.04	110.63	422.96	815.97	142.33	336.61	739.8	67.757	361.19	768.75	49.643	332.66	754	38.241	394.48	892.57	96.438	471.81	940.05	140.66	378.21	966.22	171.36	429.79	279.95	686.78	167.56	331.93	571.87	159.57	272.03	597.62	184.94	339.45	658.42	136.6	295.73	497.88	175.01	336.69	505.94	302.64	206.21	384.79	174.64	238.16	279.68	188.59	182.2	312.34	186.96	261.97	353.31	177.93	135.9	118.59	221.3	154.33	110.56	313.17	57.854	86.996	276.09	68.778	59.974	307.78	54.411	60.148	247.33	222.96	42.365	183.3	267.14	37.613	289.55	316.61	46.853	227.14	327.55	1459.2	316.06	286.16	1191.9	291.34
402	1.6708	559.46	1171.3	308.26	405.6	1405.4	465.41	420.13	1414.3	150.2	429.02	1718.6	311.58	523.95	997.88	405.31	495.84	1002.9	160.96	293.95	1015.2	351.89	293.11	1027.6	262.84	454.03	907.8	485.49	403.9	917.7	97.321	432.69	1072.1	460.38	390.27	1099.7	139.05	274.01	987.57	302.29	519.03	665.24	468.13	619.58	592.75	430.72	542.89	576.39	442.87	589.49	675.56	455.53	620.52	520.77	428.18	619	505.35	298.45	627.33	336.12	435.33	716.36	313.26	435.53	661.53	267.16	427.41	677.92	376.61	442.67	783.12	109.34	421.8	819.57	140.88	335.37	743.41	67.107	360.2	772.09	48.731	331.63	757.47	37.539	393.52	896.6	94.607	470.31	943.99	138.47	376.52	970.47	169.05	428.02	284.68	686.14	168.13	336.28	571.09	159.88	276.54	596.99	185.46	344	657.64	136.96	299.85	497.21	175.37	341.22	504.98	302.87	209.51	384.93	174.9	240.49	279.52	188.78	184.83	312.68	187.23	264.99	352.93	178.17	136.67	119.43	221.4	155.04	111.21	313.23	58.349	88.143	276.1	69.106	61.094	307.83	54.729	61.294	247.37	223.11	42.397	183.3	267.32	37.619	289.46	316.85	46.572	227.05	332.92	1458.2	316.31	291.79	1190.7	291.75
403	1.675	565.13	1170.4	308.6	410.93	1404.5	465.75	425.55	1413.2	150.48	434.08	1717.7	311.73	529.85	997.05	405.47	501.23	1001.8	161.09	299.7	1014.3	352.61	298.73	1026.6	263.57	460.22	907.13	485.88	409	916.72	97.758	438.62	1071.3	460.74	395.56	1098.7	139.44	279.7	986.57	303.09	525.77	664.71	468.31	626.3	592.54	430.27	549.76	575.92	442.92	596.11	675.26	455.25	627.26	520.19	427.71	625.57	505.02	298.32	632.8	335.35	434.72	721.62	311.84	434.63	666.42	266.17	426.7	683.71	375.45	442.01	786.84	108	420.63	822.79	139.28	334.13	746.6	66.516	359.22	774.96	47.795	330.62	760.44	36.893	392.59	900.22	92.557	468.8	947.6	135.89	374.82	974.44	166.35	426.21	289.49	685.49	168.73	340.74	570.3	160.22	281.15	596.35	186.01	348.64	656.84	137.36	304.08	496.54	175.74	345.84	504.01	303.14	212.89	385.08	175.18	242.89	279.39	188.98	187.55	313.05	187.52	268.09	352.55	178.43	137.48	120.34	221.49	155.79	111.91	313.3	58.887	89.386	276.1	69.463	62.308	307.87	55.078	62.538	247.4	223.28	42.438	183.3	267.51	37.637	289.37	317.09	46.293	226.97	338.31	1457.2	316.58	297.44	1189.6	292.16
404	1.6792	570.8	1169.5	308.96	416.29	1403.7	466.09	430.99	1412.2	150.77	439.14	1716.8	311.88	535.77	996.31	405.64	506.68	1000.8	161.24	305.47	1013.3	353.32	304.39	1025.6	264.3	466.44	906.54	486.27	414.16	915.73	98.216	444.55	1070.5	461.09	400.87	1097.7	139.82	285.42	985.58	303.88	532.63	664.26	468.5	633.13	592.4	429.81	556.74	575.53	442.97	602.85	675.02	454.98	634.08	519.65	427.24	632.26	504.78	298.2	638.22	334.62	434.08	726.8	310.37	433.7	671.18	265.19	425.97	689.48	374.29	441.32	790.25	106.62	419.47	825.68	137.55	332.88	749.41	66.006	358.24	777.4	46.858	329.65	762.96	36.327	391.7	903.46	90.33	467.31	950.93	132.97	373.11	978.16	163.29	424.39	294.4	684.82	169.36	345.29	569.5	160.6	285.86	595.68	186.59	353.37	656.04	137.79	308.41	495.85	176.15	350.54	503.04	303.44	216.37	385.25	175.47	245.36	279.27	189.2	190.35	313.45	187.81	271.27	352.19	178.71	138.34	121.3	221.58	156.59	112.66	313.37	59.471	90.732	276.11	69.853	63.622	307.92	55.462	63.883	247.44	223.45	42.489	183.29	267.7	37.667	289.28	317.34	46.018	226.89	343.72	1456.2	316.85	303.1	1188.5	292.56
405	1.6833	576.49	1168.7	309.33	421.66	1402.9	466.45	436.45	1411.2	151.08	444.19	1716	312.04	541.71	995.66	405.83	512.18	999.85	161.41	311.26	1012.4	354.01	310.07	1024.6	265.01	472.7	906	486.66	419.38	914.74	98.695	450.46	1069.9	461.44	406.22	1096.7	140.18	291.17	984.59	304.66	539.6	663.86	468.71	640.06	592.32	429.34	563.82	575.19	443.02	609.69	674.84	454.71	640.99	519.15	426.76	639.03	504.62	298.1	643.6	333.93	433.43	731.92	308.89	432.75	675.85	264.24	425.24	695.24	373.13	440.61	793.38	105.24	418.32	828.29	135.74	331.65	751.91	65.595	357.3	779.47	45.944	328.73	765.1	35.861	390.87	906.38	87.966	465.83	954	129.75	371.41	981.68	159.92	422.54	299.4	684.14	170.02	349.95	568.69	161.01	290.67	595.01	187.21	358.19	655.23	138.25	312.85	495.16	176.58	355.34	502.08	303.78	219.94	385.45	175.78	247.9	279.18	189.43	193.23	313.88	188.12	274.53	351.85	179	139.26	122.32	221.67	157.45	113.48	313.43	60.106	92.183	276.11	70.28	65.041	307.96	55.884	65.337	247.47	223.64	42.551	183.28	267.91	37.712	289.2	317.61	45.749	226.81	349.14	1455.3	317.14	308.77	1187.5	292.95
406	1.6875	582.18	1167.9	309.71	427.05	1402.1	466.81	441.93	1410.2	151.41	449.23	1715.2	312.19	547.67	995.1	406.04	517.73	998.88	161.59	317.08	1011.6	354.68	315.79	1023.6	265.71	478.98	905.53	487.04	424.67	913.74	99.195	456.36	1069.3	461.78	411.62	1095.7	140.54	296.97	983.61	305.42	546.66	663.52	468.93	647.06	592.3	428.86	570.98	574.92	443.07	616.61	674.71	454.46	647.97	518.69	426.27	645.87	504.54	298.01	648.96	333.29	432.77	736.99	307.42	431.78	680.45	263.32	424.51	701	372	439.87	796.29	103.88	417.2	830.67	133.85	330.43	754.14	65.295	356.38	781.22	45.07	327.86	766.89	35.509	390.1	909.02	85.506	464.37	956.86	126.28	369.71	985.04	156.29	420.7	304.49	683.45	170.72	354.71	567.88	161.46	295.58	594.32	187.85	363.12	654.42	138.76	317.39	494.47	177.04	360.22	501.12	304.16	223.61	385.67	176.11	250.51	279.13	189.68	196.2	314.35	188.43	277.88	351.53	179.3	140.24	123.41	221.75	158.36	114.35	313.49	60.796	93.747	276.11	70.748	66.571	307.99	56.347	66.905	247.49	223.85	42.625	183.27	268.13	37.773	289.11	317.88	45.484	226.74	354.57	1454.4	317.44	314.46	1186.5	293.33
407	1.6917	587.89	1167.1	310.11	432.46	1401.4	467.18	447.42	1409.3	151.75	454.26	1714.4	312.35	553.65	994.63	406.26	523.34	997.93	161.79	322.92	1010.7	355.34	321.54	1022.6	266.4	485.31	905.12	487.43	430.02	912.74	99.715	462.25	1068.8	462.12	417.05	1094.7	140.88	302.81	982.66	306.17	553.79	663.24	469.16	654.12	592.32	428.38	578.2	574.7	443.1	623.62	674.63	454.21	655	518.28	425.77	652.74	504.53	297.92	654.31	332.71	432.12	742.05	305.98	430.79	685.02	262.45	423.81	706.77	370.92	439.12	799.02	102.54	416.1	832.85	131.92	329.24	756.15	65.114	355.5	782.71	44.253	327.05	768.41	35.28	389.39	911.42	82.982	462.94	959.54	122.59	368.03	988.25	152.45	418.85	309.68	682.75	171.44	359.57	567.07	161.94	300.59	593.63	188.53	368.14	653.61	139.29	322.04	493.78	177.51	365.19	500.17	304.58	227.38	385.92	176.45	253.21	279.1	189.93	199.26	314.86	188.75	281.32	351.23	179.61	141.29	124.57	221.82	159.33	115.3	313.54	61.544	95.428	276.1	71.261	68.217	308.02	56.857	68.591	247.52	224.07	42.71	183.26	268.37	37.851	289.03	318.16	45.226	226.67	360.01	1453.5	317.75	320.17	1185.5	293.7
408	1.6958	593.61	1166.4	310.52	437.88	1400.7	467.56	452.92	1408.4	152.11	459.29	1713.6	312.51	559.64	994.25	406.51	529.01	997	162.02	328.79	1009.9	355.98	327.33	1021.6	267.08	491.68	904.77	487.82	435.43	911.74	100.25	468.13	1068.3	462.46	422.54	1093.6	141.21	308.69	981.72	306.9	560.99	663.01	469.39	661.23	592.39	427.89	585.46	574.54	443.12	630.69	674.6	453.98	662.06	517.93	425.27	659.62	504.57	297.84	659.68	332.21	431.47	747.11	304.58	429.8	689.57	261.64	423.12	712.57	369.89	438.35	801.6	101.27	415.05	834.89	129.97	328.08	758	65.054	354.67	783.98	43.504	326.31	769.7	35.177	388.75	913.62	80.428	461.55	962.07	118.74	366.38	991.35	148.43	417.03	314.96	682.05	172.2	364.55	566.26	162.46	305.71	592.93	189.24	373.27	652.8	139.86	326.81	493.1	178.01	370.25	499.23	305.03	231.24	386.2	176.79	255.98	279.12	190.19	202.41	315.42	189.07	284.85	350.96	179.93	142.4	125.8	221.89	160.37	116.31	313.58	62.357	97.231	276.09	71.826	69.987	308.04	57.418	70.402	247.54	224.31	42.809	183.24	268.61	37.948	288.95	318.44	44.976	226.6	365.46	1452.6	318.07	325.9	1184.6	294.07
409	1.7	599.34	1165.7	310.95	443.32	1400	467.94	458.43	1407.5	152.48	464.32	1712.9	312.68	565.66	993.96	406.78	534.74	996.1	162.27	334.69	1009.1	356.61	333.16	1020.7	267.75	498.08	904.48	488.21	440.92	910.75	100.81	474.02	1067.9	462.81	428.08	1092.6	141.54	314.61	980.81	307.61	568.24	662.84	469.62	668.37	592.49	427.41	592.75	574.43	443.13	637.81	674.6	453.77	669.15	517.63	424.76	666.47	504.67	297.76	665.07	331.78	430.85	752.18	303.26	428.81	694.14	260.92	422.47	718.39	368.94	437.57	804.06	100.05	414.04	836.83	128.02	326.95	759.71	65.114	353.89	785.08	42.835	325.62	770.81	35.198	388.18	915.66	77.867	460.19	964.47	114.76	364.76	994.35	144.27	415.23	320.35	681.35	172.99	369.64	565.45	163	310.94	592.23	189.97	378.5	651.99	140.47	331.68	492.42	178.53	375.4	498.31	305.51	235.22	386.51	177.15	258.85	279.17	190.45	205.66	316.03	189.4	288.47	350.71	180.25	143.58	127.11	221.94	161.48	117.4	313.6	63.239	99.16	276.08	72.448	71.884	308.05	58.034	72.341	247.55	224.56	42.922	183.21	268.87	38.065	288.87	318.73	44.734	226.53	370.92	1451.8	318.41	331.63	1183.6	294.43
